<?xml version="1.0" encoding="utf-8" standalone="no"?>
<!DOCTYPE svg PUBLIC "-//W3C//DTD SVG 1.1//EN"
  "http://www.w3.org/Graphics/SVG/1.1/DTD/svg11.dtd">
<svg xmlns:xlink="http://www.w3.org/1999/xlink" width="347.985627pt" height="353.986899pt" viewBox="0 0 347.985627 353.986899" xmlns="http://www.w3.org/2000/svg" version="1.1">
 <metadata>
  <rdf:RDF xmlns:dc="http://purl.org/dc/elements/1.1/" xmlns:cc="http://creativecommons.org/ns#" xmlns:rdf="http://www.w3.org/1999/02/22-rdf-syntax-ns#">
   <cc:Work>
    <dc:type rdf:resource="http://purl.org/dc/dcmitype/StillImage"/>
    <dc:date>2025-12-12T15:42:48.880151</dc:date>
    <dc:format>image/svg+xml</dc:format>
    <dc:creator>
     <cc:Agent>
      <dc:title>Matplotlib v3.10.7, https://matplotlib.org/</dc:title>
     </cc:Agent>
    </dc:creator>
   </cc:Work>
  </rdf:RDF>
 </metadata>
 <defs>
  <style type="text/css">*{stroke-linejoin: round; stroke-linecap: butt}</style>
 </defs>
 <g id="figure_1">
  <g id="patch_1">
   <path d="M 0 353.986899 
L 347.985627 353.986899 
L 347.985627 0 
L 0 0 
z
" style="fill: #ffffff"/>
  </g>
  <g id="axes_1">
   <g id="patch_2">
    <path d="M 65.466783 337.024901 
L 119.692883 337.024901 
L 119.692883 20.475941 
L 65.466783 20.475941 
z
" style="fill: #ffffff"/>
   </g>
   <g id="patch_3">
    <path d="M 65.466783 337.024901 
L 119.692883 337.024901 
L 119.692883 294.818373 
L 65.466783 294.818373 
z
" clip-path="url(#pc50fd81ae8)" style="fill: #d8f1d5; opacity: 0.9"/>
   </g>
   <g id="patch_4">
    <path d="M 65.466783 294.818373 
L 119.692883 294.818373 
L 119.692883 231.508581 
L 65.466783 231.508581 
z
" clip-path="url(#pc50fd81ae8)" style="fill: #e8f4ff; opacity: 0.9"/>
   </g>
   <g id="patch_5">
    <path d="M 65.466783 231.508581 
L 119.692883 231.508581 
L 119.692883 20.475941 
L 65.466783 20.475941 
z
" clip-path="url(#pc50fd81ae8)" style="fill: #d9e7ff; opacity: 0.85"/>
   </g>
   <g id="FillBetweenPolyCollection_1">
    <defs>
     <path id="m5b569fbe8b" d="M 68.178088 -30.151538 
L 68.178088 -19.599906 
L 73.600698 -19.599906 
L 73.600698 -30.151538 
L 73.600698 -30.151538 
L 68.178088 -30.151538 
z
" style="stroke: #c7e4c2; stroke-opacity: 0.8"/>
    </defs>
    <g clip-path="url(#pc50fd81ae8)">
     <use xlink:href="#m5b569fbe8b" x="0" y="353.986899" style="fill: #c7e4c2; fill-opacity: 0.8; stroke: #c7e4c2; stroke-opacity: 0.8"/>
    </g>
   </g>
   <g id="matplotlib.axis_1"/>
   <g id="matplotlib.axis_2">
    <g id="ytick_1">
     <g id="line2d_1">
      <defs>
       <path id="md7d8adf206" d="M 0 0 
L -3 0 
" style="stroke: #000000; stroke-width: 0.8"/>
      </defs>
      <g>
       <use xlink:href="#md7d8adf206" x="63.84" y="337.024901" style="stroke: #000000; stroke-width: 0.8"/>
      </g>
     </g>
     <g id="text_1">
      <!-- 0 -->
      <g transform="translate(52.88625 339.684354) scale(0.07 -0.07)">
       <defs>
        <path id="DejaVuSans-30" d="M 2034 4250 
Q 1547 4250 1301 3770 
Q 1056 3291 1056 2328 
Q 1056 1369 1301 889 
Q 1547 409 2034 409 
Q 2525 409 2770 889 
Q 3016 1369 3016 2328 
Q 3016 3291 2770 3770 
Q 2525 4250 2034 4250 
z
M 2034 4750 
Q 2819 4750 3233 4129 
Q 3647 3509 3647 2328 
Q 3647 1150 3233 529 
Q 2819 -91 2034 -91 
Q 1250 -91 836 529 
Q 422 1150 422 2328 
Q 422 3509 836 4129 
Q 1250 4750 2034 4750 
z
" transform="scale(0.015625)"/>
       </defs>
       <use xlink:href="#DejaVuSans-30"/>
      </g>
     </g>
    </g>
    <g id="ytick_2">
     <g id="line2d_2">
      <g>
       <use xlink:href="#md7d8adf206" x="63.84" y="310.645821" style="stroke: #000000; stroke-width: 0.8"/>
      </g>
     </g>
     <g id="text_2">
      <!-- 10 -->
      <g transform="translate(48.4325 313.305274) scale(0.07 -0.07)">
       <defs>
        <path id="DejaVuSans-31" d="M 794 531 
L 1825 531 
L 1825 4091 
L 703 3866 
L 703 4441 
L 1819 4666 
L 2450 4666 
L 2450 531 
L 3481 531 
L 3481 0 
L 794 0 
L 794 531 
z
" transform="scale(0.015625)"/>
       </defs>
       <use xlink:href="#DejaVuSans-31"/>
       <use xlink:href="#DejaVuSans-30" transform="translate(63.623047 0)"/>
      </g>
     </g>
    </g>
    <g id="ytick_3">
     <g id="line2d_3">
      <g>
       <use xlink:href="#md7d8adf206" x="63.84" y="284.266741" style="stroke: #000000; stroke-width: 0.8"/>
      </g>
     </g>
     <g id="text_3">
      <!-- 20 -->
      <g transform="translate(48.4325 286.926194) scale(0.07 -0.07)">
       <defs>
        <path id="DejaVuSans-32" d="M 1228 531 
L 3431 531 
L 3431 0 
L 469 0 
L 469 531 
Q 828 903 1448 1529 
Q 2069 2156 2228 2338 
Q 2531 2678 2651 2914 
Q 2772 3150 2772 3378 
Q 2772 3750 2511 3984 
Q 2250 4219 1831 4219 
Q 1534 4219 1204 4116 
Q 875 4013 500 3803 
L 500 4441 
Q 881 4594 1212 4672 
Q 1544 4750 1819 4750 
Q 2544 4750 2975 4387 
Q 3406 4025 3406 3419 
Q 3406 3131 3298 2873 
Q 3191 2616 2906 2266 
Q 2828 2175 2409 1742 
Q 1991 1309 1228 531 
z
" transform="scale(0.015625)"/>
       </defs>
       <use xlink:href="#DejaVuSans-32"/>
       <use xlink:href="#DejaVuSans-30" transform="translate(63.623047 0)"/>
      </g>
     </g>
    </g>
    <g id="ytick_4">
     <g id="line2d_4">
      <g>
       <use xlink:href="#md7d8adf206" x="63.84" y="205.129501" style="stroke: #000000; stroke-width: 0.8"/>
      </g>
     </g>
     <g id="text_4">
      <!-- 500 -->
      <g transform="translate(43.97875 207.788954) scale(0.07 -0.07)">
       <defs>
        <path id="DejaVuSans-35" d="M 691 4666 
L 3169 4666 
L 3169 4134 
L 1269 4134 
L 1269 2991 
Q 1406 3038 1543 3061 
Q 1681 3084 1819 3084 
Q 2600 3084 3056 2656 
Q 3513 2228 3513 1497 
Q 3513 744 3044 326 
Q 2575 -91 1722 -91 
Q 1428 -91 1123 -41 
Q 819 9 494 109 
L 494 744 
Q 775 591 1075 516 
Q 1375 441 1709 441 
Q 2250 441 2565 725 
Q 2881 1009 2881 1497 
Q 2881 1984 2565 2268 
Q 2250 2553 1709 2553 
Q 1456 2553 1204 2497 
Q 953 2441 691 2322 
L 691 4666 
z
" transform="scale(0.015625)"/>
       </defs>
       <use xlink:href="#DejaVuSans-35"/>
       <use xlink:href="#DejaVuSans-30" transform="translate(63.623047 0)"/>
       <use xlink:href="#DejaVuSans-30" transform="translate(127.246094 0)"/>
      </g>
     </g>
    </g>
    <g id="ytick_5">
     <g id="line2d_5">
      <g>
       <use xlink:href="#md7d8adf206" x="63.84" y="152.371341" style="stroke: #000000; stroke-width: 0.8"/>
      </g>
     </g>
     <g id="text_5">
      <!-- 2000 -->
      <g transform="translate(39.525 155.030794) scale(0.07 -0.07)">
       <use xlink:href="#DejaVuSans-32"/>
       <use xlink:href="#DejaVuSans-30" transform="translate(63.623047 0)"/>
       <use xlink:href="#DejaVuSans-30" transform="translate(127.246094 0)"/>
       <use xlink:href="#DejaVuSans-30" transform="translate(190.869141 0)"/>
      </g>
     </g>
    </g>
    <g id="ytick_6">
     <g id="line2d_6">
      <g>
       <use xlink:href="#md7d8adf206" x="63.84" y="46.855021" style="stroke: #000000; stroke-width: 0.8"/>
      </g>
     </g>
     <g id="text_6">
      <!-- 35786 km -->
      <g transform="translate(21.974688 49.514474) scale(0.07 -0.07)">
       <defs>
        <path id="DejaVuSans-33" d="M 2597 2516 
Q 3050 2419 3304 2112 
Q 3559 1806 3559 1356 
Q 3559 666 3084 287 
Q 2609 -91 1734 -91 
Q 1441 -91 1130 -33 
Q 819 25 488 141 
L 488 750 
Q 750 597 1062 519 
Q 1375 441 1716 441 
Q 2309 441 2620 675 
Q 2931 909 2931 1356 
Q 2931 1769 2642 2001 
Q 2353 2234 1838 2234 
L 1294 2234 
L 1294 2753 
L 1863 2753 
Q 2328 2753 2575 2939 
Q 2822 3125 2822 3475 
Q 2822 3834 2567 4026 
Q 2313 4219 1838 4219 
Q 1578 4219 1281 4162 
Q 984 4106 628 3988 
L 628 4550 
Q 988 4650 1302 4700 
Q 1616 4750 1894 4750 
Q 2613 4750 3031 4423 
Q 3450 4097 3450 3541 
Q 3450 3153 3228 2886 
Q 3006 2619 2597 2516 
z
" transform="scale(0.015625)"/>
        <path id="DejaVuSans-37" d="M 525 4666 
L 3525 4666 
L 3525 4397 
L 1831 0 
L 1172 0 
L 2766 4134 
L 525 4134 
L 525 4666 
z
" transform="scale(0.015625)"/>
        <path id="DejaVuSans-38" d="M 2034 2216 
Q 1584 2216 1326 1975 
Q 1069 1734 1069 1313 
Q 1069 891 1326 650 
Q 1584 409 2034 409 
Q 2484 409 2743 651 
Q 3003 894 3003 1313 
Q 3003 1734 2745 1975 
Q 2488 2216 2034 2216 
z
M 1403 2484 
Q 997 2584 770 2862 
Q 544 3141 544 3541 
Q 544 4100 942 4425 
Q 1341 4750 2034 4750 
Q 2731 4750 3128 4425 
Q 3525 4100 3525 3541 
Q 3525 3141 3298 2862 
Q 3072 2584 2669 2484 
Q 3125 2378 3379 2068 
Q 3634 1759 3634 1313 
Q 3634 634 3220 271 
Q 2806 -91 2034 -91 
Q 1263 -91 848 271 
Q 434 634 434 1313 
Q 434 1759 690 2068 
Q 947 2378 1403 2484 
z
M 1172 3481 
Q 1172 3119 1398 2916 
Q 1625 2713 2034 2713 
Q 2441 2713 2670 2916 
Q 2900 3119 2900 3481 
Q 2900 3844 2670 4047 
Q 2441 4250 2034 4250 
Q 1625 4250 1398 4047 
Q 1172 3844 1172 3481 
z
" transform="scale(0.015625)"/>
        <path id="DejaVuSans-36" d="M 2113 2584 
Q 1688 2584 1439 2293 
Q 1191 2003 1191 1497 
Q 1191 994 1439 701 
Q 1688 409 2113 409 
Q 2538 409 2786 701 
Q 3034 994 3034 1497 
Q 3034 2003 2786 2293 
Q 2538 2584 2113 2584 
z
M 3366 4563 
L 3366 3988 
Q 3128 4100 2886 4159 
Q 2644 4219 2406 4219 
Q 1781 4219 1451 3797 
Q 1122 3375 1075 2522 
Q 1259 2794 1537 2939 
Q 1816 3084 2150 3084 
Q 2853 3084 3261 2657 
Q 3669 2231 3669 1497 
Q 3669 778 3244 343 
Q 2819 -91 2113 -91 
Q 1303 -91 875 529 
Q 447 1150 447 2328 
Q 447 3434 972 4092 
Q 1497 4750 2381 4750 
Q 2619 4750 2861 4703 
Q 3103 4656 3366 4563 
z
" transform="scale(0.015625)"/>
        <path id="DejaVuSans-20" transform="scale(0.015625)"/>
        <path id="DejaVuSans-6b" d="M 581 4863 
L 1159 4863 
L 1159 1991 
L 2875 3500 
L 3609 3500 
L 1753 1863 
L 3688 0 
L 2938 0 
L 1159 1709 
L 1159 0 
L 581 0 
L 581 4863 
z
" transform="scale(0.015625)"/>
        <path id="DejaVuSans-6d" d="M 3328 2828 
Q 3544 3216 3844 3400 
Q 4144 3584 4550 3584 
Q 5097 3584 5394 3201 
Q 5691 2819 5691 2113 
L 5691 0 
L 5113 0 
L 5113 2094 
Q 5113 2597 4934 2840 
Q 4756 3084 4391 3084 
Q 3944 3084 3684 2787 
Q 3425 2491 3425 1978 
L 3425 0 
L 2847 0 
L 2847 2094 
Q 2847 2600 2669 2842 
Q 2491 3084 2119 3084 
Q 1678 3084 1418 2786 
Q 1159 2488 1159 1978 
L 1159 0 
L 581 0 
L 581 3500 
L 1159 3500 
L 1159 2956 
Q 1356 3278 1631 3431 
Q 1906 3584 2284 3584 
Q 2666 3584 2933 3390 
Q 3200 3197 3328 2828 
z
" transform="scale(0.015625)"/>
       </defs>
       <use xlink:href="#DejaVuSans-33"/>
       <use xlink:href="#DejaVuSans-35" transform="translate(63.623047 0)"/>
       <use xlink:href="#DejaVuSans-37" transform="translate(127.246094 0)"/>
       <use xlink:href="#DejaVuSans-38" transform="translate(190.869141 0)"/>
       <use xlink:href="#DejaVuSans-36" transform="translate(254.492188 0)"/>
       <use xlink:href="#DejaVuSans-20" transform="translate(318.115234 0)"/>
       <use xlink:href="#DejaVuSans-6b" transform="translate(349.902344 0)"/>
       <use xlink:href="#DejaVuSans-6d" transform="translate(407.8125 0)"/>
      </g>
     </g>
    </g>
    <g id="text_7">
     <!-- Height (km, not to scale) -->
     <g transform="translate(12.518906 222.31339) rotate(-90) scale(0.07 -0.07)">
      <defs>
       <path id="DejaVuSans-48" d="M 628 4666 
L 1259 4666 
L 1259 2753 
L 3553 2753 
L 3553 4666 
L 4184 4666 
L 4184 0 
L 3553 0 
L 3553 2222 
L 1259 2222 
L 1259 0 
L 628 0 
L 628 4666 
z
" transform="scale(0.015625)"/>
       <path id="DejaVuSans-65" d="M 3597 1894 
L 3597 1613 
L 953 1613 
Q 991 1019 1311 708 
Q 1631 397 2203 397 
Q 2534 397 2845 478 
Q 3156 559 3463 722 
L 3463 178 
Q 3153 47 2828 -22 
Q 2503 -91 2169 -91 
Q 1331 -91 842 396 
Q 353 884 353 1716 
Q 353 2575 817 3079 
Q 1281 3584 2069 3584 
Q 2775 3584 3186 3129 
Q 3597 2675 3597 1894 
z
M 3022 2063 
Q 3016 2534 2758 2815 
Q 2500 3097 2075 3097 
Q 1594 3097 1305 2825 
Q 1016 2553 972 2059 
L 3022 2063 
z
" transform="scale(0.015625)"/>
       <path id="DejaVuSans-69" d="M 603 3500 
L 1178 3500 
L 1178 0 
L 603 0 
L 603 3500 
z
M 603 4863 
L 1178 4863 
L 1178 4134 
L 603 4134 
L 603 4863 
z
" transform="scale(0.015625)"/>
       <path id="DejaVuSans-67" d="M 2906 1791 
Q 2906 2416 2648 2759 
Q 2391 3103 1925 3103 
Q 1463 3103 1205 2759 
Q 947 2416 947 1791 
Q 947 1169 1205 825 
Q 1463 481 1925 481 
Q 2391 481 2648 825 
Q 2906 1169 2906 1791 
z
M 3481 434 
Q 3481 -459 3084 -895 
Q 2688 -1331 1869 -1331 
Q 1566 -1331 1297 -1286 
Q 1028 -1241 775 -1147 
L 775 -588 
Q 1028 -725 1275 -790 
Q 1522 -856 1778 -856 
Q 2344 -856 2625 -561 
Q 2906 -266 2906 331 
L 2906 616 
Q 2728 306 2450 153 
Q 2172 0 1784 0 
Q 1141 0 747 490 
Q 353 981 353 1791 
Q 353 2603 747 3093 
Q 1141 3584 1784 3584 
Q 2172 3584 2450 3431 
Q 2728 3278 2906 2969 
L 2906 3500 
L 3481 3500 
L 3481 434 
z
" transform="scale(0.015625)"/>
       <path id="DejaVuSans-68" d="M 3513 2113 
L 3513 0 
L 2938 0 
L 2938 2094 
Q 2938 2591 2744 2837 
Q 2550 3084 2163 3084 
Q 1697 3084 1428 2787 
Q 1159 2491 1159 1978 
L 1159 0 
L 581 0 
L 581 4863 
L 1159 4863 
L 1159 2956 
Q 1366 3272 1645 3428 
Q 1925 3584 2291 3584 
Q 2894 3584 3203 3211 
Q 3513 2838 3513 2113 
z
" transform="scale(0.015625)"/>
       <path id="DejaVuSans-74" d="M 1172 4494 
L 1172 3500 
L 2356 3500 
L 2356 3053 
L 1172 3053 
L 1172 1153 
Q 1172 725 1289 603 
Q 1406 481 1766 481 
L 2356 481 
L 2356 0 
L 1766 0 
Q 1100 0 847 248 
Q 594 497 594 1153 
L 594 3053 
L 172 3053 
L 172 3500 
L 594 3500 
L 594 4494 
L 1172 4494 
z
" transform="scale(0.015625)"/>
       <path id="DejaVuSans-28" d="M 1984 4856 
Q 1566 4138 1362 3434 
Q 1159 2731 1159 2009 
Q 1159 1288 1364 580 
Q 1569 -128 1984 -844 
L 1484 -844 
Q 1016 -109 783 600 
Q 550 1309 550 2009 
Q 550 2706 781 3412 
Q 1013 4119 1484 4856 
L 1984 4856 
z
" transform="scale(0.015625)"/>
       <path id="DejaVuSans-2c" d="M 750 794 
L 1409 794 
L 1409 256 
L 897 -744 
L 494 -744 
L 750 256 
L 750 794 
z
" transform="scale(0.015625)"/>
       <path id="DejaVuSans-6e" d="M 3513 2113 
L 3513 0 
L 2938 0 
L 2938 2094 
Q 2938 2591 2744 2837 
Q 2550 3084 2163 3084 
Q 1697 3084 1428 2787 
Q 1159 2491 1159 1978 
L 1159 0 
L 581 0 
L 581 3500 
L 1159 3500 
L 1159 2956 
Q 1366 3272 1645 3428 
Q 1925 3584 2291 3584 
Q 2894 3584 3203 3211 
Q 3513 2838 3513 2113 
z
" transform="scale(0.015625)"/>
       <path id="DejaVuSans-6f" d="M 1959 3097 
Q 1497 3097 1228 2736 
Q 959 2375 959 1747 
Q 959 1119 1226 758 
Q 1494 397 1959 397 
Q 2419 397 2687 759 
Q 2956 1122 2956 1747 
Q 2956 2369 2687 2733 
Q 2419 3097 1959 3097 
z
M 1959 3584 
Q 2709 3584 3137 3096 
Q 3566 2609 3566 1747 
Q 3566 888 3137 398 
Q 2709 -91 1959 -91 
Q 1206 -91 779 398 
Q 353 888 353 1747 
Q 353 2609 779 3096 
Q 1206 3584 1959 3584 
z
" transform="scale(0.015625)"/>
       <path id="DejaVuSans-73" d="M 2834 3397 
L 2834 2853 
Q 2591 2978 2328 3040 
Q 2066 3103 1784 3103 
Q 1356 3103 1142 2972 
Q 928 2841 928 2578 
Q 928 2378 1081 2264 
Q 1234 2150 1697 2047 
L 1894 2003 
Q 2506 1872 2764 1633 
Q 3022 1394 3022 966 
Q 3022 478 2636 193 
Q 2250 -91 1575 -91 
Q 1294 -91 989 -36 
Q 684 19 347 128 
L 347 722 
Q 666 556 975 473 
Q 1284 391 1588 391 
Q 1994 391 2212 530 
Q 2431 669 2431 922 
Q 2431 1156 2273 1281 
Q 2116 1406 1581 1522 
L 1381 1569 
Q 847 1681 609 1914 
Q 372 2147 372 2553 
Q 372 3047 722 3315 
Q 1072 3584 1716 3584 
Q 2034 3584 2315 3537 
Q 2597 3491 2834 3397 
z
" transform="scale(0.015625)"/>
       <path id="DejaVuSans-63" d="M 3122 3366 
L 3122 2828 
Q 2878 2963 2633 3030 
Q 2388 3097 2138 3097 
Q 1578 3097 1268 2742 
Q 959 2388 959 1747 
Q 959 1106 1268 751 
Q 1578 397 2138 397 
Q 2388 397 2633 464 
Q 2878 531 3122 666 
L 3122 134 
Q 2881 22 2623 -34 
Q 2366 -91 2075 -91 
Q 1284 -91 818 406 
Q 353 903 353 1747 
Q 353 2603 823 3093 
Q 1294 3584 2113 3584 
Q 2378 3584 2631 3529 
Q 2884 3475 3122 3366 
z
" transform="scale(0.015625)"/>
       <path id="DejaVuSans-61" d="M 2194 1759 
Q 1497 1759 1228 1600 
Q 959 1441 959 1056 
Q 959 750 1161 570 
Q 1363 391 1709 391 
Q 2188 391 2477 730 
Q 2766 1069 2766 1631 
L 2766 1759 
L 2194 1759 
z
M 3341 1997 
L 3341 0 
L 2766 0 
L 2766 531 
Q 2569 213 2275 61 
Q 1981 -91 1556 -91 
Q 1019 -91 701 211 
Q 384 513 384 1019 
Q 384 1609 779 1909 
Q 1175 2209 1959 2209 
L 2766 2209 
L 2766 2266 
Q 2766 2663 2505 2880 
Q 2244 3097 1772 3097 
Q 1472 3097 1187 3025 
Q 903 2953 641 2809 
L 641 3341 
Q 956 3463 1253 3523 
Q 1550 3584 1831 3584 
Q 2591 3584 2966 3190 
Q 3341 2797 3341 1997 
z
" transform="scale(0.015625)"/>
       <path id="DejaVuSans-6c" d="M 603 4863 
L 1178 4863 
L 1178 0 
L 603 0 
L 603 4863 
z
" transform="scale(0.015625)"/>
       <path id="DejaVuSans-29" d="M 513 4856 
L 1013 4856 
Q 1481 4119 1714 3412 
Q 1947 2706 1947 2009 
Q 1947 1309 1714 600 
Q 1481 -109 1013 -844 
L 513 -844 
Q 928 -128 1133 580 
Q 1338 1288 1338 2009 
Q 1338 2731 1133 3434 
Q 928 4138 513 4856 
z
" transform="scale(0.015625)"/>
      </defs>
      <use xlink:href="#DejaVuSans-48"/>
      <use xlink:href="#DejaVuSans-65" transform="translate(75.195312 0)"/>
      <use xlink:href="#DejaVuSans-69" transform="translate(136.71875 0)"/>
      <use xlink:href="#DejaVuSans-67" transform="translate(164.501953 0)"/>
      <use xlink:href="#DejaVuSans-68" transform="translate(227.978516 0)"/>
      <use xlink:href="#DejaVuSans-74" transform="translate(291.357422 0)"/>
      <use xlink:href="#DejaVuSans-20" transform="translate(330.566406 0)"/>
      <use xlink:href="#DejaVuSans-28" transform="translate(362.353516 0)"/>
      <use xlink:href="#DejaVuSans-6b" transform="translate(401.367188 0)"/>
      <use xlink:href="#DejaVuSans-6d" transform="translate(459.277344 0)"/>
      <use xlink:href="#DejaVuSans-2c" transform="translate(556.689453 0)"/>
      <use xlink:href="#DejaVuSans-20" transform="translate(588.476562 0)"/>
      <use xlink:href="#DejaVuSans-6e" transform="translate(620.263672 0)"/>
      <use xlink:href="#DejaVuSans-6f" transform="translate(683.642578 0)"/>
      <use xlink:href="#DejaVuSans-74" transform="translate(744.824219 0)"/>
      <use xlink:href="#DejaVuSans-20" transform="translate(784.033203 0)"/>
      <use xlink:href="#DejaVuSans-74" transform="translate(815.820312 0)"/>
      <use xlink:href="#DejaVuSans-6f" transform="translate(855.029297 0)"/>
      <use xlink:href="#DejaVuSans-20" transform="translate(916.210938 0)"/>
      <use xlink:href="#DejaVuSans-73" transform="translate(947.998047 0)"/>
      <use xlink:href="#DejaVuSans-63" transform="translate(1000.097656 0)"/>
      <use xlink:href="#DejaVuSans-61" transform="translate(1055.078125 0)"/>
      <use xlink:href="#DejaVuSans-6c" transform="translate(1116.357422 0)"/>
      <use xlink:href="#DejaVuSans-65" transform="translate(1144.140625 0)"/>
      <use xlink:href="#DejaVuSans-29" transform="translate(1205.664062 0)"/>
     </g>
    </g>
   </g>
   <g id="patch_6">
    <path d="M 77.848034 177.469464 
Q 85.801979 170.836357 93.06901 164.776093 
" clip-path="url(#pc50fd81ae8)" style="fill: none; opacity: 0.9; stroke-dasharray: 2.96,1.28; stroke-dashoffset: 0; stroke: #6a7fb8; stroke-width: 0.8; stroke-linecap: round"/>
    <path d="M 90.457278 165.391604 
L 93.06901 164.776093 
L 91.994379 167.234785 
" clip-path="url(#pc50fd81ae8)" style="fill: none; opacity: 0.9; stroke-dasharray: 2.96,1.28; stroke-dashoffset: 0; stroke: #6a7fb8; stroke-width: 0.8; stroke-linecap: round"/>
   </g>
   <g id="patch_7">
    <path d="M 96.869864 164.151764 
Q 102.070674 168.19978 106.565658 171.698422 
" clip-path="url(#pc50fd81ae8)" style="fill: none; opacity: 0.9; stroke-dasharray: 2.96,1.28; stroke-dashoffset: 0; stroke: #6a7fb8; stroke-width: 0.8; stroke-linecap: round"/>
    <path d="M 105.408795 169.277334 
L 106.565658 171.698422 
L 103.93467 171.17126 
" clip-path="url(#pc50fd81ae8)" style="fill: none; opacity: 0.9; stroke-dasharray: 2.96,1.28; stroke-dashoffset: 0; stroke: #6a7fb8; stroke-width: 0.8; stroke-linecap: round"/>
   </g>
   <g id="patch_8">
    <path d="M 86.195094 125.01979 
Q 93.937218 120.715482 100.897606 116.845787 
" clip-path="url(#pc50fd81ae8)" style="fill: none; opacity: 0.9; stroke-dasharray: 2.96,1.28; stroke-dashoffset: 0; stroke: #6a7fb8; stroke-width: 0.8; stroke-linecap: round"/>
    <path d="M 98.216893 116.963169 
L 100.897606 116.845787 
L 99.383084 119.060787 
" clip-path="url(#pc50fd81ae8)" style="fill: none; opacity: 0.9; stroke-dasharray: 2.96,1.28; stroke-dashoffset: 0; stroke: #6a7fb8; stroke-width: 0.8; stroke-linecap: round"/>
   </g>
   <g id="patch_9">
    <path d="M 92.891607 48.82669 
Q 98.002424 81.147705 102.973544 112.585269 
" clip-path="url(#pc50fd81ae8)" style="fill: none; opacity: 0.9; stroke-dasharray: 2.96,1.28; stroke-dashoffset: 0; stroke: #6a7fb8; stroke-width: 0.8; stroke-linecap: round"/>
    <path d="M 103.783971 110.0273 
L 102.973544 112.585269 
L 101.413424 110.402146 
" clip-path="url(#pc50fd81ae8)" style="fill: none; opacity: 0.9; stroke-dasharray: 2.96,1.28; stroke-dashoffset: 0; stroke: #6a7fb8; stroke-width: 0.8; stroke-linecap: round"/>
   </g>
   <g id="patch_10">
    <path d="M 92.37579 48.840214 
Q 88.51322 86.420287 84.7421 123.11062 
" clip-path="url(#pc50fd81ae8)" style="fill: none; opacity: 0.9; stroke-dasharray: 2.96,1.28; stroke-dashoffset: 0; stroke: #6a7fb8; stroke-width: 0.8; stroke-linecap: round"/>
    <path d="M 86.181196 120.84589 
L 84.7421 123.11062 
L 83.793774 120.600505 
" clip-path="url(#pc50fd81ae8)" style="fill: none; opacity: 0.9; stroke-dasharray: 2.96,1.28; stroke-dashoffset: 0; stroke: #6a7fb8; stroke-width: 0.8; stroke-linecap: round"/>
   </g>
   <g id="patch_11">
    <path d="M 82.503588 270.412894 
Q 79.023412 292.179817 75.702097 312.953129 
" clip-path="url(#pc50fd81ae8)" style="fill: none; opacity: 0.9; stroke-dasharray: 0.9,1.485; stroke-dashoffset: 0; stroke: #2f5597; stroke-width: 0.9; stroke-linecap: round"/>
    <path d="M 77.265956 310.772683 
L 75.702097 312.953129 
L 74.896055 310.393774 
" clip-path="url(#pc50fd81ae8)" style="fill: none; opacity: 0.9; stroke-dasharray: 0.9,1.485; stroke-dashoffset: 0; stroke: #2f5597; stroke-width: 0.9; stroke-linecap: round"/>
   </g>
   <g id="patch_12">
    <path d="M 83.818134 270.174928 
Q 90.410756 281.628775 96.501419 292.210534 
" clip-path="url(#pc50fd81ae8)" style="fill: none; opacity: 0.9; stroke-dasharray: 0.9,1.485; stroke-dashoffset: 0; stroke: #2f5597; stroke-width: 0.9; stroke-linecap: round"/>
    <path d="M 96.344206 289.531862 
L 96.501419 292.210534 
L 94.264154 290.729102 
" clip-path="url(#pc50fd81ae8)" style="fill: none; opacity: 0.9; stroke-dasharray: 0.9,1.485; stroke-dashoffset: 0; stroke: #2f5597; stroke-width: 0.9; stroke-linecap: round"/>
   </g>
   <g id="patch_13">
    <path d="M 83.053975 266.45249 
Q 89.055107 215.681385 94.938125 165.909554 
" clip-path="url(#pc50fd81ae8)" style="fill: none; opacity: 0.9; stroke-dasharray: 0.9,1.485; stroke-dashoffset: 0; stroke: #2f5597; stroke-width: 0.9; stroke-linecap: round"/>
    <path d="M 93.464702 168.152103 
L 94.938125 165.909554 
L 95.848111 168.433821 
" clip-path="url(#pc50fd81ae8)" style="fill: none; opacity: 0.9; stroke-dasharray: 0.9,1.485; stroke-dashoffset: 0; stroke: #2f5597; stroke-width: 0.9; stroke-linecap: round"/>
   </g>
   <g id="patch_14">
    <path d="M 75.227481 291.543851 
Q 75.227481 304.050811 75.227481 315.551541 
" clip-path="url(#pc50fd81ae8)" style="fill: none; opacity: 0.9; stroke-dasharray: 0.9,1.485; stroke-dashoffset: 0; stroke: #2f5597; stroke-width: 0.9; stroke-linecap: round"/>
    <path d="M 76.427481 313.151541 
L 75.227481 315.551541 
L 74.027481 313.151541 
" clip-path="url(#pc50fd81ae8)" style="fill: none; opacity: 0.9; stroke-dasharray: 0.9,1.485; stroke-dashoffset: 0; stroke: #2f5597; stroke-width: 0.9; stroke-linecap: round"/>
   </g>
   <g id="patch_15">
    <path d="M 75.340292 287.541102 
Q 79.836834 207.765023 84.27675 128.993579 
" clip-path="url(#pc50fd81ae8)" style="fill: none; opacity: 0.9; stroke-dasharray: 0.9,1.485; stroke-dashoffset: 0; stroke: #2f5597; stroke-width: 0.9; stroke-linecap: round"/>
    <path d="M 82.943591 131.322246 
L 84.27675 128.993579 
L 85.339788 131.457306 
" clip-path="url(#pc50fd81ae8)" style="fill: none; opacity: 0.9; stroke-dasharray: 0.9,1.485; stroke-dashoffset: 0; stroke: #2f5597; stroke-width: 0.9; stroke-linecap: round"/>
   </g>
   <g id="patch_16">
    <path d="M 101.627225 286.030069 
Q 100.71572 285.586654 100.70906 285.583414 
" clip-path="url(#pc50fd81ae8)" style="fill: none; opacity: 0.9; stroke-dasharray: 0.9,1.485; stroke-dashoffset: 0; stroke: #2f5597; stroke-width: 0.9; stroke-linecap: round"/>
    <path d="M 102.342303 287.712385 
L 100.70906 285.583414 
L 103.392183 285.554203 
" clip-path="url(#pc50fd81ae8)" style="fill: none; opacity: 0.9; stroke-dasharray: 0.9,1.485; stroke-dashoffset: 0; stroke: #2f5597; stroke-width: 0.9; stroke-linecap: round"/>
   </g>
   <g id="patch_17">
    <path d="M 103.520538 284.9073 
Q 106.136386 230.189045 108.704185 176.475873 
" clip-path="url(#pc50fd81ae8)" style="fill: none; opacity: 0.9; stroke-dasharray: 0.9,1.485; stroke-dashoffset: 0; stroke: #2f5597; stroke-width: 0.9; stroke-linecap: round"/>
    <path d="M 107.390951 178.815834 
L 108.704185 176.475873 
L 109.788213 178.930436 
" clip-path="url(#pc50fd81ae8)" style="fill: none; opacity: 0.9; stroke-dasharray: 0.9,1.485; stroke-dashoffset: 0; stroke: #2f5597; stroke-width: 0.9; stroke-linecap: round"/>
   </g>
   <g id="patch_18">
    <path d="M 97.354073 296.710827 
Q 93.935229 306.689706 90.842519 315.716673 
" clip-path="url(#pc50fd81ae8)" style="fill: none; opacity: 0.9; stroke-dasharray: 0.9,1.485; stroke-dashoffset: 0; stroke: #2f5597; stroke-width: 0.9; stroke-linecap: round"/>
    <path d="M 92.755613 313.835165 
L 90.842519 315.716673 
L 90.485169 313.057293 
" clip-path="url(#pc50fd81ae8)" style="fill: none; opacity: 0.9; stroke-dasharray: 0.9,1.485; stroke-dashoffset: 0; stroke: #2f5597; stroke-width: 0.9; stroke-linecap: round"/>
   </g>
   <g id="patch_19">
    <path d="M 98.59104 296.72725 
Q 101.256259 305.370816 103.624985 313.052825 
" clip-path="url(#pc50fd81ae8)" style="fill: none; opacity: 0.9; stroke-dasharray: 0.9,1.485; stroke-dashoffset: 0; stroke: #2f5597; stroke-width: 0.9; stroke-linecap: round"/>
    <path d="M 104.064531 310.405789 
L 103.624985 313.052825 
L 101.771084 311.112967 
" clip-path="url(#pc50fd81ae8)" style="fill: none; opacity: 0.9; stroke-dasharray: 0.9,1.485; stroke-dashoffset: 0; stroke: #2f5597; stroke-width: 0.9; stroke-linecap: round"/>
   </g>
   <g id="patch_20">
    <path d="M 77.209924 308.29579 
Q 93.392802 310.64576 108.801179 312.883261 
" clip-path="url(#pc50fd81ae8)" style="fill: none; opacity: 0.7; stroke-dasharray: 0.7,1.155; stroke-dashoffset: 0; stroke: #2f5597; stroke-width: 0.7; stroke-linecap: round"/>
    <path d="M 106.598538 311.350822 
L 108.801179 312.883261 
L 106.253643 313.725911 
" clip-path="url(#pc50fd81ae8)" style="fill: none; opacity: 0.7; stroke-dasharray: 0.7,1.155; stroke-dashoffset: 0; stroke: #2f5597; stroke-width: 0.7; stroke-linecap: round"/>
   </g>
   <g id="patch_21">
    <path d="M 63.84 337.024901 
L 63.84 20.475941 
" style="fill: none; stroke: #000000; stroke-width: 0.8; stroke-linejoin: miter; stroke-linecap: square"/>
   </g>
   <g id="text_8">
    <!-- Space Layer -->
    <g style="fill: #1f4f99" transform="translate(88.018545 64.827469) scale(0.08 -0.08)">
     <defs>
      <path id="DejaVuSans-Bold-53" d="M 3834 4519 
L 3834 3531 
Q 3450 3703 3084 3790 
Q 2719 3878 2394 3878 
Q 1963 3878 1756 3759 
Q 1550 3641 1550 3391 
Q 1550 3203 1689 3098 
Q 1828 2994 2194 2919 
L 2706 2816 
Q 3484 2659 3812 2340 
Q 4141 2022 4141 1434 
Q 4141 663 3683 286 
Q 3225 -91 2284 -91 
Q 1841 -91 1394 -6 
Q 947 78 500 244 
L 500 1259 
Q 947 1022 1364 901 
Q 1781 781 2169 781 
Q 2563 781 2772 912 
Q 2981 1044 2981 1288 
Q 2981 1506 2839 1625 
Q 2697 1744 2272 1838 
L 1806 1941 
Q 1106 2091 782 2419 
Q 459 2747 459 3303 
Q 459 4000 909 4375 
Q 1359 4750 2203 4750 
Q 2588 4750 2994 4692 
Q 3400 4634 3834 4519 
z
" transform="scale(0.015625)"/>
      <path id="DejaVuSans-Bold-70" d="M 1656 506 
L 1656 -1331 
L 538 -1331 
L 538 3500 
L 1656 3500 
L 1656 2988 
Q 1888 3294 2169 3439 
Q 2450 3584 2816 3584 
Q 3463 3584 3878 3070 
Q 4294 2556 4294 1747 
Q 4294 938 3878 423 
Q 3463 -91 2816 -91 
Q 2450 -91 2169 54 
Q 1888 200 1656 506 
z
M 2400 2772 
Q 2041 2772 1848 2508 
Q 1656 2244 1656 1747 
Q 1656 1250 1848 986 
Q 2041 722 2400 722 
Q 2759 722 2948 984 
Q 3138 1247 3138 1747 
Q 3138 2247 2948 2509 
Q 2759 2772 2400 2772 
z
" transform="scale(0.015625)"/>
      <path id="DejaVuSans-Bold-61" d="M 2106 1575 
Q 1756 1575 1579 1456 
Q 1403 1338 1403 1106 
Q 1403 894 1545 773 
Q 1688 653 1941 653 
Q 2256 653 2472 879 
Q 2688 1106 2688 1447 
L 2688 1575 
L 2106 1575 
z
M 3816 1997 
L 3816 0 
L 2688 0 
L 2688 519 
Q 2463 200 2181 54 
Q 1900 -91 1497 -91 
Q 953 -91 614 226 
Q 275 544 275 1050 
Q 275 1666 698 1953 
Q 1122 2241 2028 2241 
L 2688 2241 
L 2688 2328 
Q 2688 2594 2478 2717 
Q 2269 2841 1825 2841 
Q 1466 2841 1156 2769 
Q 847 2697 581 2553 
L 581 3406 
Q 941 3494 1303 3539 
Q 1666 3584 2028 3584 
Q 2975 3584 3395 3211 
Q 3816 2838 3816 1997 
z
" transform="scale(0.015625)"/>
      <path id="DejaVuSans-Bold-63" d="M 3366 3391 
L 3366 2478 
Q 3138 2634 2908 2709 
Q 2678 2784 2431 2784 
Q 1963 2784 1702 2511 
Q 1441 2238 1441 1747 
Q 1441 1256 1702 982 
Q 1963 709 2431 709 
Q 2694 709 2930 787 
Q 3166 866 3366 1019 
L 3366 103 
Q 3103 6 2833 -42 
Q 2563 -91 2291 -91 
Q 1344 -91 809 395 
Q 275 881 275 1747 
Q 275 2613 809 3098 
Q 1344 3584 2291 3584 
Q 2566 3584 2833 3536 
Q 3100 3488 3366 3391 
z
" transform="scale(0.015625)"/>
      <path id="DejaVuSans-Bold-65" d="M 4031 1759 
L 4031 1441 
L 1416 1441 
Q 1456 1047 1700 850 
Q 1944 653 2381 653 
Q 2734 653 3104 758 
Q 3475 863 3866 1075 
L 3866 213 
Q 3469 63 3072 -14 
Q 2675 -91 2278 -91 
Q 1328 -91 801 392 
Q 275 875 275 1747 
Q 275 2603 792 3093 
Q 1309 3584 2216 3584 
Q 3041 3584 3536 3087 
Q 4031 2591 4031 1759 
z
M 2881 2131 
Q 2881 2450 2695 2645 
Q 2509 2841 2209 2841 
Q 1884 2841 1681 2658 
Q 1478 2475 1428 2131 
L 2881 2131 
z
" transform="scale(0.015625)"/>
      <path id="DejaVuSans-Bold-20" transform="scale(0.015625)"/>
      <path id="DejaVuSans-Bold-4c" d="M 588 4666 
L 1791 4666 
L 1791 909 
L 3903 909 
L 3903 0 
L 588 0 
L 588 4666 
z
" transform="scale(0.015625)"/>
      <path id="DejaVuSans-Bold-79" d="M 78 3500 
L 1197 3500 
L 2138 1125 
L 2938 3500 
L 4056 3500 
L 2584 -331 
Q 2363 -916 2067 -1148 
Q 1772 -1381 1288 -1381 
L 641 -1381 
L 641 -647 
L 991 -647 
Q 1275 -647 1404 -556 
Q 1534 -466 1606 -231 
L 1638 -134 
L 78 3500 
z
" transform="scale(0.015625)"/>
      <path id="DejaVuSans-Bold-72" d="M 3138 2547 
Q 2991 2616 2845 2648 
Q 2700 2681 2553 2681 
Q 2122 2681 1889 2404 
Q 1656 2128 1656 1613 
L 1656 0 
L 538 0 
L 538 3500 
L 1656 3500 
L 1656 2925 
Q 1872 3269 2151 3426 
Q 2431 3584 2822 3584 
Q 2878 3584 2943 3579 
Q 3009 3575 3134 3559 
L 3138 2547 
z
" transform="scale(0.015625)"/>
     </defs>
     <use xlink:href="#DejaVuSans-Bold-53"/>
     <use xlink:href="#DejaVuSans-Bold-70" transform="translate(72.021484 0)"/>
     <use xlink:href="#DejaVuSans-Bold-61" transform="translate(143.603516 0)"/>
     <use xlink:href="#DejaVuSans-Bold-63" transform="translate(211.083984 0)"/>
     <use xlink:href="#DejaVuSans-Bold-65" transform="translate(270.361328 0)"/>
     <use xlink:href="#DejaVuSans-Bold-20" transform="translate(338.183594 0)"/>
     <use xlink:href="#DejaVuSans-Bold-4c" transform="translate(372.998047 0)"/>
     <use xlink:href="#DejaVuSans-Bold-61" transform="translate(436.71875 0)"/>
     <use xlink:href="#DejaVuSans-Bold-79" transform="translate(501.074219 0)"/>
     <use xlink:href="#DejaVuSans-Bold-65" transform="translate(566.259766 0)"/>
     <use xlink:href="#DejaVuSans-Bold-72" transform="translate(634.082031 0)"/>
    </g>
   </g>
   <g id="text_9">
    <!-- Air Layer -->
    <g style="fill: #1f4f99" transform="translate(95.10667 254.788095) scale(0.08 -0.08)">
     <defs>
      <path id="DejaVuSans-Bold-41" d="M 3419 850 
L 1538 850 
L 1241 0 
L 31 0 
L 1759 4666 
L 3194 4666 
L 4922 0 
L 3713 0 
L 3419 850 
z
M 1838 1716 
L 3116 1716 
L 2478 3572 
L 1838 1716 
z
" transform="scale(0.015625)"/>
      <path id="DejaVuSans-Bold-69" d="M 538 3500 
L 1656 3500 
L 1656 0 
L 538 0 
L 538 3500 
z
M 538 4863 
L 1656 4863 
L 1656 3950 
L 538 3950 
L 538 4863 
z
" transform="scale(0.015625)"/>
     </defs>
     <use xlink:href="#DejaVuSans-Bold-41"/>
     <use xlink:href="#DejaVuSans-Bold-69" transform="translate(77.392578 0)"/>
     <use xlink:href="#DejaVuSans-Bold-72" transform="translate(111.669922 0)"/>
     <use xlink:href="#DejaVuSans-Bold-20" transform="translate(160.986328 0)"/>
     <use xlink:href="#DejaVuSans-Bold-4c" transform="translate(195.800781 0)"/>
     <use xlink:href="#DejaVuSans-Bold-61" transform="translate(259.521484 0)"/>
     <use xlink:href="#DejaVuSans-Bold-79" transform="translate(323.876953 0)"/>
     <use xlink:href="#DejaVuSans-Bold-65" transform="translate(389.0625 0)"/>
     <use xlink:href="#DejaVuSans-Bold-72" transform="translate(456.884766 0)"/>
    </g>
   </g>
   <g id="text_10">
    <!-- Ground Layer -->
    <g style="fill: #1f4f99" transform="translate(84.98417 320.735795) scale(0.08 -0.08)">
     <defs>
      <path id="DejaVuSans-Bold-47" d="M 4781 347 
Q 4331 128 3847 18 
Q 3363 -91 2847 -91 
Q 1681 -91 1000 561 
Q 319 1213 319 2328 
Q 319 3456 1012 4103 
Q 1706 4750 2913 4750 
Q 3378 4750 3804 4662 
Q 4231 4575 4609 4403 
L 4609 3438 
Q 4219 3659 3833 3768 
Q 3447 3878 3059 3878 
Q 2341 3878 1952 3476 
Q 1563 3075 1563 2328 
Q 1563 1588 1938 1184 
Q 2313 781 3003 781 
Q 3191 781 3352 804 
Q 3513 828 3641 878 
L 3641 1784 
L 2906 1784 
L 2906 2591 
L 4781 2591 
L 4781 347 
z
" transform="scale(0.015625)"/>
      <path id="DejaVuSans-Bold-6f" d="M 2203 2784 
Q 1831 2784 1636 2517 
Q 1441 2250 1441 1747 
Q 1441 1244 1636 976 
Q 1831 709 2203 709 
Q 2569 709 2762 976 
Q 2956 1244 2956 1747 
Q 2956 2250 2762 2517 
Q 2569 2784 2203 2784 
z
M 2203 3584 
Q 3106 3584 3614 3096 
Q 4122 2609 4122 1747 
Q 4122 884 3614 396 
Q 3106 -91 2203 -91 
Q 1297 -91 786 396 
Q 275 884 275 1747 
Q 275 2609 786 3096 
Q 1297 3584 2203 3584 
z
" transform="scale(0.015625)"/>
      <path id="DejaVuSans-Bold-75" d="M 500 1363 
L 500 3500 
L 1625 3500 
L 1625 3150 
Q 1625 2866 1622 2436 
Q 1619 2006 1619 1863 
Q 1619 1441 1641 1255 
Q 1663 1069 1716 984 
Q 1784 875 1895 815 
Q 2006 756 2150 756 
Q 2500 756 2700 1025 
Q 2900 1294 2900 1772 
L 2900 3500 
L 4019 3500 
L 4019 0 
L 2900 0 
L 2900 506 
Q 2647 200 2364 54 
Q 2081 -91 1741 -91 
Q 1134 -91 817 281 
Q 500 653 500 1363 
z
" transform="scale(0.015625)"/>
      <path id="DejaVuSans-Bold-6e" d="M 4056 2131 
L 4056 0 
L 2931 0 
L 2931 347 
L 2931 1631 
Q 2931 2084 2911 2256 
Q 2891 2428 2841 2509 
Q 2775 2619 2662 2680 
Q 2550 2741 2406 2741 
Q 2056 2741 1856 2470 
Q 1656 2200 1656 1722 
L 1656 0 
L 538 0 
L 538 3500 
L 1656 3500 
L 1656 2988 
Q 1909 3294 2193 3439 
Q 2478 3584 2822 3584 
Q 3428 3584 3742 3212 
Q 4056 2841 4056 2131 
z
" transform="scale(0.015625)"/>
      <path id="DejaVuSans-Bold-64" d="M 2919 2988 
L 2919 4863 
L 4044 4863 
L 4044 0 
L 2919 0 
L 2919 506 
Q 2688 197 2409 53 
Q 2131 -91 1766 -91 
Q 1119 -91 703 423 
Q 288 938 288 1747 
Q 288 2556 703 3070 
Q 1119 3584 1766 3584 
Q 2128 3584 2408 3439 
Q 2688 3294 2919 2988 
z
M 2181 722 
Q 2541 722 2730 984 
Q 2919 1247 2919 1747 
Q 2919 2247 2730 2509 
Q 2541 2772 2181 2772 
Q 1825 2772 1636 2509 
Q 1447 2247 1447 1747 
Q 1447 1247 1636 984 
Q 1825 722 2181 722 
z
" transform="scale(0.015625)"/>
     </defs>
     <use xlink:href="#DejaVuSans-Bold-47"/>
     <use xlink:href="#DejaVuSans-Bold-72" transform="translate(82.080078 0)"/>
     <use xlink:href="#DejaVuSans-Bold-6f" transform="translate(131.396484 0)"/>
     <use xlink:href="#DejaVuSans-Bold-75" transform="translate(200.097656 0)"/>
     <use xlink:href="#DejaVuSans-Bold-6e" transform="translate(271.289062 0)"/>
     <use xlink:href="#DejaVuSans-Bold-64" transform="translate(342.480469 0)"/>
     <use xlink:href="#DejaVuSans-Bold-20" transform="translate(414.0625 0)"/>
     <use xlink:href="#DejaVuSans-Bold-4c" transform="translate(448.876953 0)"/>
     <use xlink:href="#DejaVuSans-Bold-61" transform="translate(512.597656 0)"/>
     <use xlink:href="#DejaVuSans-Bold-79" transform="translate(576.953125 0)"/>
     <use xlink:href="#DejaVuSans-Bold-65" transform="translate(642.138672 0)"/>
     <use xlink:href="#DejaVuSans-Bold-72" transform="translate(709.960938 0)"/>
    </g>
   </g>
   <g id="text_11">
    <!-- LEO -->
    <g style="fill: #2f5597" transform="translate(69.800597 174.075067) scale(0.06 -0.06)">
     <defs>
      <path id="DejaVuSans-Bold-45" d="M 588 4666 
L 3834 4666 
L 3834 3756 
L 1791 3756 
L 1791 2888 
L 3713 2888 
L 3713 1978 
L 1791 1978 
L 1791 909 
L 3903 909 
L 3903 0 
L 588 0 
L 588 4666 
z
" transform="scale(0.015625)"/>
      <path id="DejaVuSans-Bold-4f" d="M 2719 3878 
Q 2169 3878 1866 3472 
Q 1563 3066 1563 2328 
Q 1563 1594 1866 1187 
Q 2169 781 2719 781 
Q 3272 781 3575 1187 
Q 3878 1594 3878 2328 
Q 3878 3066 3575 3472 
Q 3272 3878 2719 3878 
z
M 2719 4750 
Q 3844 4750 4481 4106 
Q 5119 3463 5119 2328 
Q 5119 1197 4481 553 
Q 3844 -91 2719 -91 
Q 1597 -91 958 553 
Q 319 1197 319 2328 
Q 319 3463 958 4106 
Q 1597 4750 2719 4750 
z
" transform="scale(0.015625)"/>
     </defs>
     <use xlink:href="#DejaVuSans-Bold-4c"/>
     <use xlink:href="#DejaVuSans-Bold-45" transform="translate(63.720703 0)"/>
     <use xlink:href="#DejaVuSans-Bold-4f" transform="translate(132.03125 0)"/>
    </g>
   </g>
   <g id="text_12">
    <!-- LEO -->
    <g style="fill: #2f5597" transform="translate(88.779732 158.247619) scale(0.06 -0.06)">
     <use xlink:href="#DejaVuSans-Bold-4c"/>
     <use xlink:href="#DejaVuSans-Bold-45" transform="translate(63.720703 0)"/>
     <use xlink:href="#DejaVuSans-Bold-4f" transform="translate(132.03125 0)"/>
    </g>
   </g>
   <g id="text_13">
    <!-- LEO -->
    <g style="fill: #2f5597" transform="translate(102.336257 168.799251) scale(0.06 -0.06)">
     <use xlink:href="#DejaVuSans-Bold-4c"/>
     <use xlink:href="#DejaVuSans-Bold-45" transform="translate(63.720703 0)"/>
     <use xlink:href="#DejaVuSans-Bold-4f" transform="translate(132.03125 0)"/>
    </g>
   </g>
   <g id="text_14">
    <!-- MEO -->
    <g style="fill: #2f5597" transform="translate(76.860606 121.316907) scale(0.06 -0.06)">
     <defs>
      <path id="DejaVuSans-Bold-4d" d="M 588 4666 
L 2119 4666 
L 3181 2169 
L 4250 4666 
L 5778 4666 
L 5778 0 
L 4641 0 
L 4641 3413 
L 3566 897 
L 2803 897 
L 1728 3413 
L 1728 0 
L 588 0 
L 588 4666 
z
" transform="scale(0.015625)"/>
     </defs>
     <use xlink:href="#DejaVuSans-Bold-4d"/>
     <use xlink:href="#DejaVuSans-Bold-45" transform="translate(99.511719 0)"/>
     <use xlink:href="#DejaVuSans-Bold-4f" transform="translate(167.822266 0)"/>
    </g>
   </g>
   <g id="text_15">
    <!-- MEO -->
    <g style="fill: #2f5597" transform="translate(95.839741 110.765275) scale(0.06 -0.06)">
     <use xlink:href="#DejaVuSans-Bold-4d"/>
     <use xlink:href="#DejaVuSans-Bold-45" transform="translate(99.511719 0)"/>
     <use xlink:href="#DejaVuSans-Bold-4f" transform="translate(167.822266 0)"/>
    </g>
   </g>
   <g id="text_16">
    <!-- GEO -->
    <g style="fill: #2f5597" transform="translate(85.517646 42.179667) scale(0.06 -0.06)">
     <use xlink:href="#DejaVuSans-Bold-47"/>
     <use xlink:href="#DejaVuSans-Bold-45" transform="translate(82.080078 0)"/>
     <use xlink:href="#DejaVuSans-Bold-4f" transform="translate(150.390625 0)"/>
    </g>
   </g>
   <g id="text_17">
    <!-- HAP -->
    <g style="fill: #2f5f98" transform="translate(74.61601 260.874387) scale(0.07 -0.07)">
     <defs>
      <path id="DejaVuSans-Bold-48" d="M 588 4666 
L 1791 4666 
L 1791 2888 
L 3566 2888 
L 3566 4666 
L 4769 4666 
L 4769 0 
L 3566 0 
L 3566 1978 
L 1791 1978 
L 1791 0 
L 588 0 
L 588 4666 
z
" transform="scale(0.015625)"/>
      <path id="DejaVuSans-Bold-50" d="M 588 4666 
L 2584 4666 
Q 3475 4666 3951 4270 
Q 4428 3875 4428 3144 
Q 4428 2409 3951 2014 
Q 3475 1619 2584 1619 
L 1791 1619 
L 1791 0 
L 588 0 
L 588 4666 
z
M 1791 3794 
L 1791 2491 
L 2456 2491 
Q 2806 2491 2997 2661 
Q 3188 2831 3188 3144 
Q 3188 3456 2997 3625 
Q 2806 3794 2456 3794 
L 1791 3794 
z
" transform="scale(0.015625)"/>
     </defs>
     <use xlink:href="#DejaVuSans-Bold-48"/>
     <use xlink:href="#DejaVuSans-Bold-41" transform="translate(83.691406 0)"/>
     <use xlink:href="#DejaVuSans-Bold-50" transform="translate(161.083984 0)"/>
    </g>
   </g>
   <g id="patch_22">
    <path d="M 74.68522 290.59772 
L 75.769742 290.59772 
L 75.769742 288.487394 
L 74.68522 288.487394 
z
" clip-path="url(#pc50fd81ae8)" style="fill: #b6d5ff; stroke: #3b6ea3; stroke-width: 0.6; stroke-linejoin: miter"/>
   </g>
   <g id="text_18">
    <!-- UAV -->
    <g style="fill: #3b6ea3" transform="translate(67.313653 283.032814) scale(0.07 -0.07)">
     <defs>
      <path id="DejaVuSans-Bold-55" d="M 588 4666 
L 1791 4666 
L 1791 1869 
Q 1791 1291 1980 1042 
Q 2169 794 2597 794 
Q 3028 794 3217 1042 
Q 3406 1291 3406 1869 
L 3406 4666 
L 4609 4666 
L 4609 1869 
Q 4609 878 4112 393 
Q 3616 -91 2597 -91 
Q 1581 -91 1084 393 
Q 588 878 588 1869 
L 588 4666 
z
" transform="scale(0.015625)"/>
      <path id="DejaVuSans-Bold-56" d="M 31 4666 
L 1241 4666 
L 2478 1222 
L 3713 4666 
L 4922 4666 
L 3194 0 
L 1759 0 
L 31 4666 
z
" transform="scale(0.015625)"/>
     </defs>
     <use xlink:href="#DejaVuSans-Bold-55"/>
     <use xlink:href="#DejaVuSans-Bold-41" transform="translate(78.076172 0)"/>
     <use xlink:href="#DejaVuSans-Bold-56" transform="translate(148.71875 0)"/>
    </g>
   </g>
   <g id="patch_23">
    <path d="M 102.882792 287.959812 
L 103.967314 287.959812 
L 103.967314 285.849486 
L 102.882792 285.849486 
z
" clip-path="url(#pc50fd81ae8)" style="fill: #b6d5ff; stroke: #3b6ea3; stroke-width: 0.6; stroke-linejoin: miter"/>
   </g>
   <g id="text_19">
    <!-- UAV -->
    <g style="fill: #3b6ea3" transform="translate(95.511225 280.394906) scale(0.07 -0.07)">
     <use xlink:href="#DejaVuSans-Bold-55"/>
     <use xlink:href="#DejaVuSans-Bold-41" transform="translate(78.076172 0)"/>
     <use xlink:href="#DejaVuSans-Bold-56" transform="translate(148.71875 0)"/>
    </g>
   </g>
   <g id="patch_24">
    <path d="M 74.576768 333.33183 
L 75.390159 333.33183 
L 75.390159 317.504382 
L 74.576768 317.504382 
z
" clip-path="url(#pc50fd81ae8)" style="fill: #e2efe2; stroke: #2f4f4f; stroke-width: 0.8; stroke-linejoin: miter"/>
   </g>
   <g id="text_20">
    <!-- Ground Station -->
    <g style="fill: #2f4f4f" transform="translate(49.483731 345.539087) scale(0.06 -0.06)">
     <defs>
      <path id="DejaVuSans-Bold-74" d="M 1759 4494 
L 1759 3500 
L 2913 3500 
L 2913 2700 
L 1759 2700 
L 1759 1216 
Q 1759 972 1856 886 
Q 1953 800 2241 800 
L 2816 800 
L 2816 0 
L 1856 0 
Q 1194 0 917 276 
Q 641 553 641 1216 
L 641 2700 
L 84 2700 
L 84 3500 
L 641 3500 
L 641 4494 
L 1759 4494 
z
" transform="scale(0.015625)"/>
     </defs>
     <use xlink:href="#DejaVuSans-Bold-47"/>
     <use xlink:href="#DejaVuSans-Bold-72" transform="translate(82.080078 0)"/>
     <use xlink:href="#DejaVuSans-Bold-6f" transform="translate(131.396484 0)"/>
     <use xlink:href="#DejaVuSans-Bold-75" transform="translate(200.097656 0)"/>
     <use xlink:href="#DejaVuSans-Bold-6e" transform="translate(271.289062 0)"/>
     <use xlink:href="#DejaVuSans-Bold-64" transform="translate(342.480469 0)"/>
     <use xlink:href="#DejaVuSans-Bold-20" transform="translate(414.0625 0)"/>
     <use xlink:href="#DejaVuSans-Bold-53" transform="translate(448.876953 0)"/>
     <use xlink:href="#DejaVuSans-Bold-74" transform="translate(520.898438 0)"/>
     <use xlink:href="#DejaVuSans-Bold-61" transform="translate(568.701172 0)"/>
     <use xlink:href="#DejaVuSans-Bold-74" transform="translate(636.181641 0)"/>
     <use xlink:href="#DejaVuSans-Bold-69" transform="translate(683.984375 0)"/>
     <use xlink:href="#DejaVuSans-Bold-6f" transform="translate(718.261719 0)"/>
     <use xlink:href="#DejaVuSans-Bold-6e" transform="translate(786.962891 0)"/>
    </g>
   </g>
   <g id="text_21">
    <!-- Base Station -->
    <g style="fill: #355b3b" transform="translate(76.548693 341.318434) scale(0.06 -0.06)">
     <defs>
      <path id="DejaVuSans-Bold-42" d="M 2456 2859 
Q 2741 2859 2887 2984 
Q 3034 3109 3034 3353 
Q 3034 3594 2887 3720 
Q 2741 3847 2456 3847 
L 1791 3847 
L 1791 2859 
L 2456 2859 
z
M 2497 819 
Q 2859 819 3042 972 
Q 3225 1125 3225 1434 
Q 3225 1738 3044 1889 
Q 2863 2041 2497 2041 
L 1791 2041 
L 1791 819 
L 2497 819 
z
M 3616 2497 
Q 4003 2384 4215 2081 
Q 4428 1778 4428 1338 
Q 4428 663 3972 331 
Q 3516 0 2584 0 
L 588 0 
L 588 4666 
L 2394 4666 
Q 3366 4666 3802 4372 
Q 4238 4078 4238 3431 
Q 4238 3091 4078 2852 
Q 3919 2613 3616 2497 
z
" transform="scale(0.015625)"/>
      <path id="DejaVuSans-Bold-73" d="M 3272 3391 
L 3272 2541 
Q 2913 2691 2578 2766 
Q 2244 2841 1947 2841 
Q 1628 2841 1473 2761 
Q 1319 2681 1319 2516 
Q 1319 2381 1436 2309 
Q 1553 2238 1856 2203 
L 2053 2175 
Q 2913 2066 3209 1816 
Q 3506 1566 3506 1031 
Q 3506 472 3093 190 
Q 2681 -91 1863 -91 
Q 1516 -91 1145 -36 
Q 775 19 384 128 
L 384 978 
Q 719 816 1070 734 
Q 1422 653 1784 653 
Q 2113 653 2278 743 
Q 2444 834 2444 1013 
Q 2444 1163 2330 1236 
Q 2216 1309 1875 1350 
L 1678 1375 
Q 931 1469 631 1722 
Q 331 1975 331 2491 
Q 331 3047 712 3315 
Q 1094 3584 1881 3584 
Q 2191 3584 2531 3537 
Q 2872 3491 3272 3391 
z
" transform="scale(0.015625)"/>
     </defs>
     <use xlink:href="#DejaVuSans-Bold-42"/>
     <use xlink:href="#DejaVuSans-Bold-61" transform="translate(76.220703 0)"/>
     <use xlink:href="#DejaVuSans-Bold-73" transform="translate(143.701172 0)"/>
     <use xlink:href="#DejaVuSans-Bold-65" transform="translate(203.222656 0)"/>
     <use xlink:href="#DejaVuSans-Bold-20" transform="translate(271.044922 0)"/>
     <use xlink:href="#DejaVuSans-Bold-53" transform="translate(305.859375 0)"/>
     <use xlink:href="#DejaVuSans-Bold-74" transform="translate(377.880859 0)"/>
     <use xlink:href="#DejaVuSans-Bold-61" transform="translate(425.683594 0)"/>
     <use xlink:href="#DejaVuSans-Bold-74" transform="translate(493.164062 0)"/>
     <use xlink:href="#DejaVuSans-Bold-69" transform="translate(540.966797 0)"/>
     <use xlink:href="#DejaVuSans-Bold-6f" transform="translate(575.244141 0)"/>
     <use xlink:href="#DejaVuSans-Bold-6e" transform="translate(643.945312 0)"/>
    </g>
   </g>
   <g id="text_22">
    <!-- Connected Vehicle -->
    <g style="fill: #2f4f4f" transform="translate(58.663372 340.263271) scale(0.06 -0.06)">
     <defs>
      <path id="DejaVuSans-Bold-43" d="M 4288 256 
Q 3956 84 3597 -3 
Q 3238 -91 2847 -91 
Q 1681 -91 1000 561 
Q 319 1213 319 2328 
Q 319 3447 1000 4098 
Q 1681 4750 2847 4750 
Q 3238 4750 3597 4662 
Q 3956 4575 4288 4403 
L 4288 3438 
Q 3953 3666 3628 3772 
Q 3303 3878 2944 3878 
Q 2300 3878 1931 3465 
Q 1563 3053 1563 2328 
Q 1563 1606 1931 1193 
Q 2300 781 2944 781 
Q 3303 781 3628 887 
Q 3953 994 4288 1222 
L 4288 256 
z
" transform="scale(0.015625)"/>
      <path id="DejaVuSans-Bold-68" d="M 4056 2131 
L 4056 0 
L 2931 0 
L 2931 347 
L 2931 1625 
Q 2931 2084 2911 2256 
Q 2891 2428 2841 2509 
Q 2775 2619 2662 2680 
Q 2550 2741 2406 2741 
Q 2056 2741 1856 2470 
Q 1656 2200 1656 1722 
L 1656 0 
L 538 0 
L 538 4863 
L 1656 4863 
L 1656 2988 
Q 1909 3294 2193 3439 
Q 2478 3584 2822 3584 
Q 3428 3584 3742 3212 
Q 4056 2841 4056 2131 
z
" transform="scale(0.015625)"/>
      <path id="DejaVuSans-Bold-6c" d="M 538 4863 
L 1656 4863 
L 1656 0 
L 538 0 
L 538 4863 
z
" transform="scale(0.015625)"/>
     </defs>
     <use xlink:href="#DejaVuSans-Bold-43"/>
     <use xlink:href="#DejaVuSans-Bold-6f" transform="translate(73.388672 0)"/>
     <use xlink:href="#DejaVuSans-Bold-6e" transform="translate(142.089844 0)"/>
     <use xlink:href="#DejaVuSans-Bold-6e" transform="translate(213.28125 0)"/>
     <use xlink:href="#DejaVuSans-Bold-65" transform="translate(284.472656 0)"/>
     <use xlink:href="#DejaVuSans-Bold-63" transform="translate(352.294922 0)"/>
     <use xlink:href="#DejaVuSans-Bold-74" transform="translate(411.572266 0)"/>
     <use xlink:href="#DejaVuSans-Bold-65" transform="translate(459.375 0)"/>
     <use xlink:href="#DejaVuSans-Bold-64" transform="translate(527.197266 0)"/>
     <use xlink:href="#DejaVuSans-Bold-20" transform="translate(598.779297 0)"/>
     <use xlink:href="#DejaVuSans-Bold-56" transform="translate(633.59375 0)"/>
     <use xlink:href="#DejaVuSans-Bold-65" transform="translate(705.486328 0)"/>
     <use xlink:href="#DejaVuSans-Bold-68" transform="translate(773.308594 0)"/>
     <use xlink:href="#DejaVuSans-Bold-69" transform="translate(844.5 0)"/>
     <use xlink:href="#DejaVuSans-Bold-63" transform="translate(878.777344 0)"/>
     <use xlink:href="#DejaVuSans-Bold-6c" transform="translate(938.054688 0)"/>
     <use xlink:href="#DejaVuSans-Bold-65" transform="translate(972.332031 0)"/>
    </g>
   </g>
   <g id="text_23">
    <!-- Handset -->
    <g style="fill: #2f4f4f" transform="translate(90.437231 338.680526) scale(0.06 -0.06)">
     <use xlink:href="#DejaVuSans-Bold-48"/>
     <use xlink:href="#DejaVuSans-Bold-61" transform="translate(83.691406 0)"/>
     <use xlink:href="#DejaVuSans-Bold-6e" transform="translate(151.171875 0)"/>
     <use xlink:href="#DejaVuSans-Bold-64" transform="translate(222.363281 0)"/>
     <use xlink:href="#DejaVuSans-Bold-73" transform="translate(293.945312 0)"/>
     <use xlink:href="#DejaVuSans-Bold-65" transform="translate(353.466797 0)"/>
     <use xlink:href="#DejaVuSans-Bold-74" transform="translate(421.289062 0)"/>
    </g>
   </g>
   <g id="text_24">
    <!-- Maritime -->
    <g style="fill: #2f4f4f" transform="translate(96.417874 337.625363) scale(0.06 -0.06)">
     <defs>
      <path id="DejaVuSans-Bold-6d" d="M 3781 2919 
Q 3994 3244 4286 3414 
Q 4578 3584 4928 3584 
Q 5531 3584 5847 3212 
Q 6163 2841 6163 2131 
L 6163 0 
L 5038 0 
L 5038 1825 
Q 5041 1866 5042 1909 
Q 5044 1953 5044 2034 
Q 5044 2406 4934 2573 
Q 4825 2741 4581 2741 
Q 4263 2741 4089 2478 
Q 3916 2216 3909 1719 
L 3909 0 
L 2784 0 
L 2784 1825 
Q 2784 2406 2684 2573 
Q 2584 2741 2328 2741 
Q 2006 2741 1831 2477 
Q 1656 2213 1656 1722 
L 1656 0 
L 531 0 
L 531 3500 
L 1656 3500 
L 1656 2988 
Q 1863 3284 2130 3434 
Q 2397 3584 2719 3584 
Q 3081 3584 3359 3409 
Q 3638 3234 3781 2919 
z
" transform="scale(0.015625)"/>
     </defs>
     <use xlink:href="#DejaVuSans-Bold-4d"/>
     <use xlink:href="#DejaVuSans-Bold-61" transform="translate(99.511719 0)"/>
     <use xlink:href="#DejaVuSans-Bold-72" transform="translate(166.992188 0)"/>
     <use xlink:href="#DejaVuSans-Bold-69" transform="translate(216.308594 0)"/>
     <use xlink:href="#DejaVuSans-Bold-74" transform="translate(250.585938 0)"/>
     <use xlink:href="#DejaVuSans-Bold-69" transform="translate(298.388672 0)"/>
     <use xlink:href="#DejaVuSans-Bold-6d" transform="translate(332.666016 0)"/>
     <use xlink:href="#DejaVuSans-Bold-65" transform="translate(436.865234 0)"/>
    </g>
   </g>
   <g id="text_25">
    <!-- Remote / Mountainous -->
    <g style="fill: #2f4f4f" transform="translate(32.781424 315.994517) scale(0.06 -0.06)">
     <defs>
      <path id="DejaVuSans-Bold-52" d="M 2297 2597 
Q 2675 2597 2839 2737 
Q 3003 2878 3003 3200 
Q 3003 3519 2839 3656 
Q 2675 3794 2297 3794 
L 1791 3794 
L 1791 2597 
L 2297 2597 
z
M 1791 1766 
L 1791 0 
L 588 0 
L 588 4666 
L 2425 4666 
Q 3347 4666 3776 4356 
Q 4206 4047 4206 3378 
Q 4206 2916 3982 2619 
Q 3759 2322 3309 2181 
Q 3556 2125 3751 1926 
Q 3947 1728 4147 1325 
L 4800 0 
L 3519 0 
L 2950 1159 
Q 2778 1509 2601 1637 
Q 2425 1766 2131 1766 
L 1791 1766 
z
" transform="scale(0.015625)"/>
      <path id="DejaVuSans-Bold-2f" d="M 1644 4666 
L 2338 4666 
L 691 -594 
L 0 -594 
L 1644 4666 
z
" transform="scale(0.015625)"/>
     </defs>
     <use xlink:href="#DejaVuSans-Bold-52"/>
     <use xlink:href="#DejaVuSans-Bold-65" transform="translate(77.001953 0)"/>
     <use xlink:href="#DejaVuSans-Bold-6d" transform="translate(144.824219 0)"/>
     <use xlink:href="#DejaVuSans-Bold-6f" transform="translate(249.023438 0)"/>
     <use xlink:href="#DejaVuSans-Bold-74" transform="translate(317.724609 0)"/>
     <use xlink:href="#DejaVuSans-Bold-65" transform="translate(365.527344 0)"/>
     <use xlink:href="#DejaVuSans-Bold-20" transform="translate(433.349609 0)"/>
     <use xlink:href="#DejaVuSans-Bold-2f" transform="translate(468.164062 0)"/>
     <use xlink:href="#DejaVuSans-Bold-20" transform="translate(504.6875 0)"/>
     <use xlink:href="#DejaVuSans-Bold-4d" transform="translate(539.501953 0)"/>
     <use xlink:href="#DejaVuSans-Bold-6f" transform="translate(639.013672 0)"/>
     <use xlink:href="#DejaVuSans-Bold-75" transform="translate(707.714844 0)"/>
     <use xlink:href="#DejaVuSans-Bold-6e" transform="translate(778.90625 0)"/>
     <use xlink:href="#DejaVuSans-Bold-74" transform="translate(850.097656 0)"/>
     <use xlink:href="#DejaVuSans-Bold-61" transform="translate(897.900391 0)"/>
     <use xlink:href="#DejaVuSans-Bold-69" transform="translate(965.380859 0)"/>
     <use xlink:href="#DejaVuSans-Bold-6e" transform="translate(999.658203 0)"/>
     <use xlink:href="#DejaVuSans-Bold-6f" transform="translate(1070.849609 0)"/>
     <use xlink:href="#DejaVuSans-Bold-75" transform="translate(1139.550781 0)"/>
     <use xlink:href="#DejaVuSans-Bold-73" transform="translate(1210.742188 0)"/>
    </g>
   </g>
   <g id="text_26">
    <!-- SAGIN Architecture (Space-Air-Ground Integrated Network) -->
    <g transform="translate(65.466783 13.430719) scale(0.082 -0.082)">
     <defs>
      <path id="DejaVuSans-Bold-49" d="M 588 4666 
L 1791 4666 
L 1791 0 
L 588 0 
L 588 4666 
z
" transform="scale(0.015625)"/>
      <path id="DejaVuSans-Bold-4e" d="M 588 4666 
L 1931 4666 
L 3628 1466 
L 3628 4666 
L 4769 4666 
L 4769 0 
L 3425 0 
L 1728 3200 
L 1728 0 
L 588 0 
L 588 4666 
z
" transform="scale(0.015625)"/>
      <path id="DejaVuSans-Bold-28" d="M 2413 -844 
L 1484 -844 
Q 1006 -72 778 623 
Q 550 1319 550 2003 
Q 550 2688 779 3389 
Q 1009 4091 1484 4856 
L 2413 4856 
Q 2013 4116 1813 3408 
Q 1613 2700 1613 2009 
Q 1613 1319 1811 609 
Q 2009 -100 2413 -844 
z
" transform="scale(0.015625)"/>
      <path id="DejaVuSans-Bold-2d" d="M 347 2297 
L 2309 2297 
L 2309 1388 
L 347 1388 
L 347 2297 
z
" transform="scale(0.015625)"/>
      <path id="DejaVuSans-Bold-67" d="M 2919 594 
Q 2688 288 2409 144 
Q 2131 0 1766 0 
Q 1125 0 706 504 
Q 288 1009 288 1791 
Q 288 2575 706 3076 
Q 1125 3578 1766 3578 
Q 2131 3578 2409 3434 
Q 2688 3291 2919 2981 
L 2919 3500 
L 4044 3500 
L 4044 353 
Q 4044 -491 3511 -936 
Q 2978 -1381 1966 -1381 
Q 1638 -1381 1331 -1331 
Q 1025 -1281 716 -1178 
L 716 -306 
Q 1009 -475 1290 -558 
Q 1572 -641 1856 -641 
Q 2406 -641 2662 -400 
Q 2919 -159 2919 353 
L 2919 594 
z
M 2181 2772 
Q 1834 2772 1640 2515 
Q 1447 2259 1447 1791 
Q 1447 1309 1634 1061 
Q 1822 813 2181 813 
Q 2531 813 2725 1069 
Q 2919 1325 2919 1791 
Q 2919 2259 2725 2515 
Q 2531 2772 2181 2772 
z
" transform="scale(0.015625)"/>
      <path id="DejaVuSans-Bold-77" d="M 225 3500 
L 1313 3500 
L 1900 1088 
L 2491 3500 
L 3425 3500 
L 4013 1113 
L 4603 3500 
L 5691 3500 
L 4769 0 
L 3547 0 
L 2956 2406 
L 2369 0 
L 1147 0 
L 225 3500 
z
" transform="scale(0.015625)"/>
      <path id="DejaVuSans-Bold-6b" d="M 538 4863 
L 1656 4863 
L 1656 2216 
L 2944 3500 
L 4244 3500 
L 2534 1894 
L 4378 0 
L 3022 0 
L 1656 1459 
L 1656 0 
L 538 0 
L 538 4863 
z
" transform="scale(0.015625)"/>
      <path id="DejaVuSans-Bold-29" d="M 513 -844 
Q 913 -100 1113 609 
Q 1313 1319 1313 2009 
Q 1313 2700 1113 3408 
Q 913 4116 513 4856 
L 1441 4856 
Q 1916 4091 2145 3389 
Q 2375 2688 2375 2003 
Q 2375 1319 2147 623 
Q 1919 -72 1441 -844 
L 513 -844 
z
" transform="scale(0.015625)"/>
     </defs>
     <use xlink:href="#DejaVuSans-Bold-53"/>
     <use xlink:href="#DejaVuSans-Bold-41" transform="translate(72.021484 0)"/>
     <use xlink:href="#DejaVuSans-Bold-47" transform="translate(149.414062 0)"/>
     <use xlink:href="#DejaVuSans-Bold-49" transform="translate(231.494141 0)"/>
     <use xlink:href="#DejaVuSans-Bold-4e" transform="translate(268.701172 0)"/>
     <use xlink:href="#DejaVuSans-Bold-20" transform="translate(352.392578 0)"/>
     <use xlink:href="#DejaVuSans-Bold-41" transform="translate(387.207031 0)"/>
     <use xlink:href="#DejaVuSans-Bold-72" transform="translate(464.599609 0)"/>
     <use xlink:href="#DejaVuSans-Bold-63" transform="translate(513.916016 0)"/>
     <use xlink:href="#DejaVuSans-Bold-68" transform="translate(573.193359 0)"/>
     <use xlink:href="#DejaVuSans-Bold-69" transform="translate(644.384766 0)"/>
     <use xlink:href="#DejaVuSans-Bold-74" transform="translate(678.662109 0)"/>
     <use xlink:href="#DejaVuSans-Bold-65" transform="translate(726.464844 0)"/>
     <use xlink:href="#DejaVuSans-Bold-63" transform="translate(794.287109 0)"/>
     <use xlink:href="#DejaVuSans-Bold-74" transform="translate(853.564453 0)"/>
     <use xlink:href="#DejaVuSans-Bold-75" transform="translate(901.367188 0)"/>
     <use xlink:href="#DejaVuSans-Bold-72" transform="translate(972.558594 0)"/>
     <use xlink:href="#DejaVuSans-Bold-65" transform="translate(1021.875 0)"/>
     <use xlink:href="#DejaVuSans-Bold-20" transform="translate(1089.697266 0)"/>
     <use xlink:href="#DejaVuSans-Bold-28" transform="translate(1124.511719 0)"/>
     <use xlink:href="#DejaVuSans-Bold-53" transform="translate(1170.214844 0)"/>
     <use xlink:href="#DejaVuSans-Bold-70" transform="translate(1242.236328 0)"/>
     <use xlink:href="#DejaVuSans-Bold-61" transform="translate(1313.818359 0)"/>
     <use xlink:href="#DejaVuSans-Bold-63" transform="translate(1381.298828 0)"/>
     <use xlink:href="#DejaVuSans-Bold-65" transform="translate(1440.576172 0)"/>
     <use xlink:href="#DejaVuSans-Bold-2d" transform="translate(1508.398438 0)"/>
     <use xlink:href="#DejaVuSans-Bold-41" transform="translate(1549.902344 0)"/>
     <use xlink:href="#DejaVuSans-Bold-69" transform="translate(1627.294922 0)"/>
     <use xlink:href="#DejaVuSans-Bold-72" transform="translate(1661.572266 0)"/>
     <use xlink:href="#DejaVuSans-Bold-2d" transform="translate(1710.888672 0)"/>
     <use xlink:href="#DejaVuSans-Bold-47" transform="translate(1752.392578 0)"/>
     <use xlink:href="#DejaVuSans-Bold-72" transform="translate(1834.472656 0)"/>
     <use xlink:href="#DejaVuSans-Bold-6f" transform="translate(1883.789062 0)"/>
     <use xlink:href="#DejaVuSans-Bold-75" transform="translate(1952.490234 0)"/>
     <use xlink:href="#DejaVuSans-Bold-6e" transform="translate(2023.681641 0)"/>
     <use xlink:href="#DejaVuSans-Bold-64" transform="translate(2094.873047 0)"/>
     <use xlink:href="#DejaVuSans-Bold-20" transform="translate(2166.455078 0)"/>
     <use xlink:href="#DejaVuSans-Bold-49" transform="translate(2201.269531 0)"/>
     <use xlink:href="#DejaVuSans-Bold-6e" transform="translate(2238.476562 0)"/>
     <use xlink:href="#DejaVuSans-Bold-74" transform="translate(2309.667969 0)"/>
     <use xlink:href="#DejaVuSans-Bold-65" transform="translate(2357.470703 0)"/>
     <use xlink:href="#DejaVuSans-Bold-67" transform="translate(2425.292969 0)"/>
     <use xlink:href="#DejaVuSans-Bold-72" transform="translate(2496.875 0)"/>
     <use xlink:href="#DejaVuSans-Bold-61" transform="translate(2546.191406 0)"/>
     <use xlink:href="#DejaVuSans-Bold-74" transform="translate(2613.671875 0)"/>
     <use xlink:href="#DejaVuSans-Bold-65" transform="translate(2661.474609 0)"/>
     <use xlink:href="#DejaVuSans-Bold-64" transform="translate(2729.296875 0)"/>
     <use xlink:href="#DejaVuSans-Bold-20" transform="translate(2800.878906 0)"/>
     <use xlink:href="#DejaVuSans-Bold-4e" transform="translate(2835.693359 0)"/>
     <use xlink:href="#DejaVuSans-Bold-65" transform="translate(2919.384766 0)"/>
     <use xlink:href="#DejaVuSans-Bold-74" transform="translate(2987.207031 0)"/>
     <use xlink:href="#DejaVuSans-Bold-77" transform="translate(3035.009766 0)"/>
     <use xlink:href="#DejaVuSans-Bold-6f" transform="translate(3127.392578 0)"/>
     <use xlink:href="#DejaVuSans-Bold-72" transform="translate(3196.09375 0)"/>
     <use xlink:href="#DejaVuSans-Bold-6b" transform="translate(3245.410156 0)"/>
     <use xlink:href="#DejaVuSans-Bold-29" transform="translate(3311.914062 0)"/>
    </g>
   </g>
   <g id="PathCollection_1">
    <defs>
     <path id="m17eac66d48" d="M 0 -5.700877 
L -5.700877 5.700877 
L 5.700877 5.700877 
z
" style="stroke: #2f5597"/>
    </defs>
    <g clip-path="url(#pc50fd81ae8)">
     <use xlink:href="#m17eac66d48" x="76.312003" y="178.750421" style="fill: #dce8ff; stroke: #2f5597"/>
    </g>
   </g>
   <g id="PathCollection_2">
    <g clip-path="url(#pc50fd81ae8)">
     <use xlink:href="#m17eac66d48" x="95.291138" y="162.922973" style="fill: #dce8ff; stroke: #2f5597"/>
    </g>
   </g>
   <g id="PathCollection_3">
    <g clip-path="url(#pc50fd81ae8)">
     <use xlink:href="#m17eac66d48" x="108.847663" y="173.474605" style="fill: #dce8ff; stroke: #2f5597"/>
    </g>
   </g>
   <g id="PathCollection_4">
    <defs>
     <path id="mc114a0d2e0" d="M 0 -6.123724 
L -6.123724 6.123724 
L 6.123724 6.123724 
z
" style="stroke: #2f5597"/>
    </defs>
    <g clip-path="url(#pc50fd81ae8)">
     <use xlink:href="#mc114a0d2e0" x="84.445918" y="125.992261" style="fill: #dce8ff; stroke: #2f5597"/>
    </g>
   </g>
   <g id="PathCollection_5">
    <g clip-path="url(#pc50fd81ae8)">
     <use xlink:href="#mc114a0d2e0" x="103.425053" y="115.440629" style="fill: #dce8ff; stroke: #2f5597"/>
    </g>
   </g>
   <g id="PathCollection_6">
    <defs>
     <path id="m6521475794" d="M 0 -6.892024 
L -6.892024 6.892024 
L 6.892024 6.892024 
z
" style="stroke: #2f5597"/>
    </defs>
    <g clip-path="url(#pc50fd81ae8)">
     <use xlink:href="#m6521475794" x="92.579833" y="46.855021" style="fill: #dce8ff; stroke: #2f5597"/>
    </g>
   </g>
   <g id="patch_25">
    <path d="M 82.168422 272.659946 
L 83.469848 272.659946 
L 83.469848 264.21864 
L 82.168422 264.21864 
z
" clip-path="url(#pc50fd81ae8)" style="fill: #ebf2ff; stroke: #2f5f98; stroke-width: 0.8; stroke-linejoin: miter"/>
   </g>
   <g id="patch_26">
    <path d="M 74.847898 292.180465 
L 75.607064 292.180465 
L 75.607064 286.904649 
L 74.847898 286.904649 
z
" clip-path="url(#pc50fd81ae8)" style="fill: #dfefff; stroke: #3b6ea3; stroke-width: 0.7; stroke-linejoin: miter"/>
   </g>
   <g id="patch_27">
    <path d="M 103.04547 289.542557 
L 103.804636 289.542557 
L 103.804636 284.266741 
L 103.04547 284.266741 
z
" clip-path="url(#pc50fd81ae8)" style="fill: #dfefff; stroke: #3b6ea3; stroke-width: 0.7; stroke-linejoin: miter"/>
   </g>
   <g id="patch_28">
    <path d="M 75.281707 322.780198 
L 75.390159 322.780198 
L 75.390159 304.314842 
L 75.281707 304.314842 
z
" clip-path="url(#pc50fd81ae8)" style="fill: #c7d7ff; stroke: #2f4f4f; stroke-width: 0.7; stroke-linejoin: miter"/>
   </g>
   <g id="patch_29">
    <path d="M 75.335933 328.056014 
C 75.400647 328.056014 75.46272 325.554494 75.50848 321.102386 
C 75.554239 316.650277 75.579951 310.611074 75.579951 304.314842 
C 75.579951 298.018609 75.554239 291.979407 75.50848 287.527298 
C 75.46272 283.075189 75.400647 280.57367 75.335933 280.57367 
C 75.271219 280.57367 75.209147 283.075189 75.163387 287.527298 
C 75.117627 291.979407 75.091916 298.018609 75.091916 304.314842 
C 75.091916 310.611074 75.117627 316.650277 75.163387 321.102386 
C 75.209147 325.554494 75.271219 328.056014 75.335933 328.056014 
z
" clip-path="url(#pc50fd81ae8)" style="fill: #d6e7ff; stroke: #2f4f4f; stroke-width: 0.8; stroke-linejoin: miter"/>
   </g>
   <g id="patch_30">
    <path d="M 97.948217 326.473269 
L 98.056669 326.473269 
L 98.056669 284.266741 
L 97.948217 284.266741 
z
" clip-path="url(#pc50fd81ae8)" style="fill: #cce8cc; stroke: #355b3b; stroke-width: 0.8; stroke-linejoin: miter"/>
   </g>
   <g id="line2d_7">
    <path d="M 98.002443 315.921637 
L 97.812652 306.425168 
" clip-path="url(#pc50fd81ae8)" style="fill: none; stroke: #355b3b; stroke-width: 0.8; stroke-linecap: square"/>
   </g>
   <g id="line2d_8">
    <path d="M 98.002443 315.921637 
L 98.192234 306.425168 
" clip-path="url(#pc50fd81ae8)" style="fill: none; stroke: #355b3b; stroke-width: 0.8; stroke-linecap: square"/>
   </g>
   <g id="line2d_9">
    <path d="M 98.002443 305.370005 
L 97.812652 295.873536 
" clip-path="url(#pc50fd81ae8)" style="fill: none; stroke: #355b3b; stroke-width: 0.8; stroke-linecap: square"/>
   </g>
   <g id="line2d_10">
    <path d="M 98.002443 305.370005 
L 98.192234 295.873536 
" clip-path="url(#pc50fd81ae8)" style="fill: none; stroke: #355b3b; stroke-width: 0.8; stroke-linecap: square"/>
   </g>
   <g id="line2d_11">
    <path d="M 98.002443 294.818373 
L 97.812652 285.321904 
" clip-path="url(#pc50fd81ae8)" style="fill: none; stroke: #355b3b; stroke-width: 0.8; stroke-linecap: square"/>
   </g>
   <g id="line2d_12">
    <path d="M 98.002443 294.818373 
L 98.192234 285.321904 
" clip-path="url(#pc50fd81ae8)" style="fill: none; stroke: #355b3b; stroke-width: 0.8; stroke-linecap: square"/>
   </g>
   <g id="patch_31">
    <path d="M 89.543171 323.835361 
L 90.193885 323.835361 
L 90.193885 309.063076 
L 89.543171 309.063076 
z
" clip-path="url(#pc50fd81ae8)" style="fill: #dfe9f5; stroke: #2f4f4f; stroke-width: 0.7; stroke-linejoin: miter"/>
   </g>
   <g id="patch_32">
    <path d="M 104.428236 325.418106 
L 104.590914 325.418106 
L 104.590914 299.039026 
L 104.428236 299.039026 
z
" clip-path="url(#pc50fd81ae8)" style="fill: #fff7e6; stroke: #2f4f4f; stroke-width: 0.7; stroke-linejoin: miter"/>
   </g>
   <g id="patch_33">
    <path d="M 111.477629 324.362943 
L 111.640307 324.362943 
L 111.640307 297.983863 
L 111.477629 297.983863 
z
" clip-path="url(#pc50fd81ae8)" style="fill: #fff7e6; stroke: #2f4f4f; stroke-width: 0.7; stroke-linejoin: miter"/>
   </g>
   <g id="PathCollection_7">
    <defs>
     <path id="m7c978b4032" d="M -3.372684 3.372684 
L 3.372684 3.372684 
L 3.372684 -3.372684 
L -3.372684 -3.372684 
z
" style="stroke: #2f5597"/>
    </defs>
    <g clip-path="url(#pc50fd81ae8)">
     <use xlink:href="#m7c978b4032" x="76.312003" y="178.750421" style="fill: #dce8ff; stroke: #2f5597"/>
    </g>
   </g>
   <g id="PathCollection_8">
    <g clip-path="url(#pc50fd81ae8)">
     <use xlink:href="#m7c978b4032" x="95.291138" y="162.922973" style="fill: #dce8ff; stroke: #2f5597"/>
    </g>
   </g>
   <g id="PathCollection_9">
    <g clip-path="url(#pc50fd81ae8)">
     <use xlink:href="#m7c978b4032" x="108.847663" y="173.474605" style="fill: #dce8ff; stroke: #2f5597"/>
    </g>
   </g>
   <g id="PathCollection_10">
    <defs>
     <path id="m07b648ba79" d="M -3.622844 3.622844 
L 3.622844 3.622844 
L 3.622844 -3.622844 
L -3.622844 -3.622844 
z
" style="stroke: #2f5597"/>
    </defs>
    <g clip-path="url(#pc50fd81ae8)">
     <use xlink:href="#m07b648ba79" x="84.445918" y="125.992261" style="fill: #dce8ff; stroke: #2f5597"/>
    </g>
   </g>
   <g id="PathCollection_11">
    <g clip-path="url(#pc50fd81ae8)">
     <use xlink:href="#m07b648ba79" x="103.425053" y="115.440629" style="fill: #dce8ff; stroke: #2f5597"/>
    </g>
   </g>
   <g id="PathCollection_12">
    <defs>
     <path id="m60cbdb8aca" d="M -4.077377 4.077377 
L 4.077377 4.077377 
L 4.077377 -4.077377 
L -4.077377 -4.077377 
z
" style="stroke: #2f5597"/>
    </defs>
    <g clip-path="url(#pc50fd81ae8)">
     <use xlink:href="#m60cbdb8aca" x="92.579833" y="46.855021" style="fill: #dce8ff; stroke: #2f5597"/>
    </g>
   </g>
   <g id="patch_34">
    <path d="M 82.792022 268.439293 
L 82.846248 268.439293 
L 82.846248 262.108314 
L 82.792022 262.108314 
z
" clip-path="url(#pc50fd81ae8)" style="fill: #2f5f98; stroke: #2f5f98; stroke-width: 0.6; stroke-linejoin: miter"/>
   </g>
   <g id="patch_35">
    <path d="M 89.70585 312.228566 
L 90.031206 312.228566 
L 90.031206 302.732097 
L 89.70585 302.732097 
z
" clip-path="url(#pc50fd81ae8)" style="fill: #c7d7ee; stroke: #2f4f4f; stroke-width: 0.7; stroke-linejoin: miter"/>
   </g>
   <g id="PathCollection_13">
    <defs>
     <path id="mc23ad9bb90" d="M 0 1.870829 
C 0.49615 1.870829 0.972045 1.673706 1.322876 1.322876 
C 1.673706 0.972045 1.870829 0.49615 1.870829 0 
C 1.870829 -0.49615 1.673706 -0.972045 1.322876 -1.322876 
C 0.972045 -1.673706 0.49615 -1.870829 0 -1.870829 
C -0.49615 -1.870829 -0.972045 -1.673706 -1.322876 -1.322876 
C -1.673706 -0.972045 -1.870829 -0.49615 -1.870829 0 
C -1.870829 0.49615 -1.673706 0.972045 -1.322876 1.322876 
C -0.972045 1.673706 -0.49615 1.870829 0 1.870829 
z
" style="stroke: #2f4f4f"/>
    </defs>
    <g clip-path="url(#pc50fd81ae8)">
     <use xlink:href="#mc23ad9bb90" x="89.651624" y="323.835361" style="fill: #2f4f4f; stroke: #2f4f4f"/>
     <use xlink:href="#mc23ad9bb90" x="90.085432" y="323.835361" style="fill: #2f4f4f; stroke: #2f4f4f"/>
    </g>
   </g>
   <g id="patch_36">
    <path d="M 104.444504 322.780198 
L 104.574646 322.780198 
L 104.574646 305.897587 
L 104.444504 305.897587 
z
" clip-path="url(#pc50fd81ae8)" style="fill: #e8f3ff; stroke: #2f4f4f; stroke-width: 0.5; stroke-linejoin: miter"/>
   </g>
   <g id="patch_37">
    <path d="M 111.493897 321.725035 
L 111.624039 321.725035 
L 111.624039 304.842423 
L 111.493897 304.842423 
z
" clip-path="url(#pc50fd81ae8)" style="fill: #e8f3ff; stroke: #2f4f4f; stroke-width: 0.5; stroke-linejoin: miter"/>
   </g>
  </g>
 </g>
 <defs>
  <clipPath id="pc50fd81ae8">
   <rect x="65.466783" y="20.475941" width="54.2261" height="316.54896"/>
  </clipPath>
 </defs>
</svg>
